<?xml version="1.0" encoding="utf-8"?>
<!-- Svg Vector Icons : http://www.onlinewebfonts.com/icon -->
<!DOCTYPE svg PUBLIC "-//W3C//DTD SVG 1.1//EN" "http://www.w3.org/Graphics/SVG/1.1/DTD/svg11.dtd">
<svg version="1.1" xmlns="http://www.w3.org/2000/svg" xmlns:xlink="http://www.w3.org/1999/xlink" x="0px" y="0px" viewBox="0 0 256 256" enable-background="new 0 0 256 256" xml:space="preserve">
<metadata> Svg Vector Icons : http://www.onlinewebfonts.com/icon </metadata>
<g><g><path fill="#000000" d="M182.9,64.7c0-30.2-24.6-54.8-54.8-54.8c-30.2,0-54.8,24.6-54.8,54.8c0,13.5,5,26.5,14,36.6c1.5,1.7,4.2,1.9,5.9,0.3c1.7-1.5,1.9-4.2,0.3-5.9c-7.6-8.5-11.8-19.5-11.8-30.9c0-25.6,20.8-46.4,46.4-46.4c25.6,0,46.4,20.8,46.4,46.4c0,25.6-20.8,46.4-46.4,46.4c-37.3,0-68.2,14.3-89.5,41.3C20.1,175.8,10,207.6,10,241.9c0,2.3,1.9,4.2,4.2,4.2s4.2-1.9,4.2-4.2c0-84.5,55.1-122.3,109.7-122.3C158.3,119.6,182.9,95,182.9,64.7z"/><path fill="#000000" d="M202.2,117.1c-2.2-0.3-4.3,1.2-4.7,3.3l-14.3,71.9c-5.9-3.9-13.1-6-20.7-6c-19,0-34.4,13.4-34.4,29.9c0,16.5,15.4,29.9,34.4,29.9c17.2,0,31.8-11.1,34.1-25.9c0.2-1.3,0.3-2.6,0.3-4c0-2.3-1.9-4.2-4.2-4.2c-2.3,0-4.2,1.9-4.2,4.2c0,0.9-0.1,1.8-0.2,2.7c-1.6,10.7-12.7,18.8-25.7,18.8c-14.3,0-25.9-9.6-25.9-21.5s11.6-21.5,25.9-21.5c8,0,15.4,3,20.4,8.2c1.1,1.1,2.7,1.6,4.2,1.2c1.5-0.4,2.6-1.7,3-3.2l14.8-74.5c3.5,1.1,9,3.2,14.5,7.4c10.4,7.9,16.4,19.6,17.8,34.7c-6.7-4.1-17.1-8.5-29.5-6.7c-2.3,0.3-3.9,2.5-3.6,4.8c0.3,2.3,2.4,3.9,4.8,3.6c15.8-2.2,27.8,8,30.1,10.1c1.2,1.1,3,1.4,4.5,0.8c1.5-0.7,2.5-2.1,2.6-3.8C246.7,124.1,202.6,117.1,202.2,117.1z"/><path fill="#000000" d="M153.4,64.7c0,2.3,1.9,4.2,4.2,4.2s4.2-1.9,4.2-4.2c0-18.6-15.1-33.7-33.7-33.7c-2.3,0-4.2,1.9-4.2,4.2s1.9,4.2,4.2,4.2C142,39.4,153.4,50.8,153.4,64.7z"/></g></g>
</svg>